<svg width="189" height="160" viewBox="0 0 189 160" fill="none" xmlns="http://www.w3.org/2000/svg">
<path d="M64.9296 20.9755C68.3013 24.3471 68.3012 29.8135 64.9296 33.185C61.5581 36.5565 56.0918 36.5566 52.7202 33.185C49.3486 29.8134 49.3486 24.3471 52.7202 20.9755C56.0917 17.604 61.558 17.6039 64.9296 20.9755Z" fill="white"/>
<path fill-rule="evenodd" clip-rule="evenodd" d="M85.2379 10.4349L94.2324 19.4294L103.227 10.4349C117.14 -3.47829 139.698 -3.47829 153.611 10.4349L178.03 34.8538C191.943 48.767 191.943 71.3247 178.03 85.2379L109.657 153.611C101.138 162.13 87.3268 162.13 78.808 153.611L10.4349 85.2379C-3.47828 71.3247 -3.4783 48.767 10.4349 34.8538L34.8538 10.4349C48.767 -3.47829 71.3247 -3.47829 85.2379 10.4349ZM60.0459 64.9296L55.1621 60.0458L89.3486 25.8593L79.581 16.0917C68.7921 5.30276 51.2997 5.30276 40.5107 16.0917L16.0917 40.5107C5.30275 51.2997 5.30277 68.7921 16.0917 79.581L40.5107 104C41.5801 105.069 42.7154 106.033 43.9034 106.89C47.763 109.676 52.1799 111.342 56.7064 111.89C63.7663 112.745 71.0929 110.879 76.988 106.291C77.8877 105.591 78.7541 104.827 79.581 104L128.419 55.1621L133.302 60.0447L82.0217 111.324C77.7509 115.595 72.4296 118.176 66.8895 119.065C62.8887 119.707 58.7738 119.468 54.858 118.347L84.4648 147.954C89.8594 153.349 98.6055 153.349 104 147.954L172.373 79.581C183.162 68.7921 183.162 51.2996 172.373 40.5107L147.954 16.0917C137.165 5.30276 119.673 5.30276 108.884 16.0917L60.0459 64.9296Z" fill="white"/>
<path fill-rule="evenodd" clip-rule="evenodd" d="M79.581 16.0917C68.7921 5.30276 51.2997 5.30276 40.5107 16.0917L16.0917 40.5107C5.30275 51.2997 5.30277 68.7921 16.0917 79.581L40.5107 104C51.2997 114.789 68.792 114.789 79.581 104L128.419 55.1621L133.302 60.0447L82.0217 111.324C74.6667 118.68 64.1962 121.02 54.858 118.347L84.4648 147.954C89.8594 153.349 98.6055 153.349 104 147.954L172.373 79.581C183.162 68.7921 183.162 51.2997 172.373 40.5107L147.954 16.0917C137.165 5.30276 119.673 5.30276 108.884 16.0917L60.0459 64.9297L55.1621 60.0459L89.3486 25.8593L79.581 16.0917ZM64.9297 20.9755C68.3013 24.3471 68.3012 29.8135 64.9297 33.185C61.5581 36.5565 56.0918 36.5566 52.7202 33.185C49.3486 29.8134 49.3486 24.3471 52.7202 20.9755C56.0917 17.604 61.558 17.6039 64.9297 20.9755Z" fill="#F5333F"/>
</svg>
